<svg width="146" height="85" viewBox="0 0 146 85" fill="none" xmlns="http://www.w3.org/2000/svg">
<g clip-path="url(#clip0_1_38)">
<path d="M49.0245 65.4929H64.1122V0.109895H49.0245V65.4929Z" fill="#797D95"/>
<path d="M23.8125 40.2146H89.3246V25.3892H23.8125V40.2146Z" fill="#797D95"/>
<path d="M5.3482 76.9604V80.2682H1.48295V76.9604H-0.000183105V84.8098H1.48295V81.6362H5.3482V84.8098H6.82009V76.9604H5.3482Z" fill="#464A64"/>
<path d="M9.3246 80.9521C9.35833 82.2416 10.0549 83.6208 11.9091 83.6208C13.7628 83.6208 14.4594 82.2304 14.4819 80.9409C14.5043 79.6178 13.7628 78.1376 11.9091 78.1376C10.0549 78.1376 9.29088 79.629 9.3246 80.9521ZM15.9425 80.9185C15.92 82.948 14.673 84.978 11.9091 84.978C9.14472 84.978 7.86395 82.9929 7.86395 80.9297C7.86395 78.8665 9.18969 76.792 11.9091 76.792C14.6168 76.792 15.965 78.8665 15.9425 80.9185" fill="#464A64"/>
<path d="M22.1094 78.844C21.8396 78.3956 21.098 77.9693 20.244 77.9693C19.1432 77.9693 18.6152 78.4293 18.6152 79.0123C18.6152 79.6963 19.4242 79.8871 20.3677 79.9988C22.0083 80.2008 23.5364 80.6272 23.5364 82.4996C23.5364 84.2491 21.9858 85 20.2328 85C18.6264 85 17.3902 84.5067 16.806 83.0714L18.0418 82.4323C18.3904 83.2958 19.3006 83.6769 20.2557 83.6769C21.188 83.6769 22.0645 83.3519 22.0645 82.4996C22.0645 81.7595 21.2892 81.4566 20.244 81.3448C18.6377 81.1541 17.1546 80.7277 17.1546 78.9674C17.1546 77.3526 18.7497 76.691 20.1995 76.6798C21.4241 76.6798 22.6936 77.0276 23.289 78.2385L22.1094 78.844Z" fill="#464A64"/>
<path d="M26.1646 81.1316H28.3893C30.288 81.1316 30.2772 78.3507 28.3893 78.3507H26.1646V81.1316ZM28.3893 82.4884H26.1646V84.7985H24.6815V76.9491C25.9173 76.9491 27.1535 76.9378 28.3893 76.9378C32.2321 76.9378 32.2433 82.4884 28.3893 82.4884" fill="#464A64"/>
<path d="M32.2868 76.9491H33.7587V84.7985H32.2868V76.9491Z" fill="#464A64"/>
<path d="M37.545 78.2946H35.0505V76.9491H41.5227V78.2946H39.0281V84.7985H37.545V78.2946Z" fill="#464A64"/>
<path d="M45.9484 78.5971L44.4877 81.939H47.409L45.9484 78.5971ZM48.0044 83.3183H43.8923L43.2182 84.7985H41.6114L45.1393 76.9491H46.7574L50.2854 84.7985H48.6673L48.0044 83.3183Z" fill="#464A64"/>
<path d="M52.5536 76.9491V83.4305H56.5987V84.7985H51.0704V76.9491H52.5536Z" fill="#464A64"/>
<path d="M65.7544 78.8663C65.2264 78.3619 64.4399 78.0814 63.7545 78.0814C62.069 78.0814 61.0464 79.3596 61.0464 80.9744C61.0464 82.2639 61.7992 83.5982 63.7545 83.5982C64.3724 83.5982 64.9116 83.464 65.5295 82.9703V81.5799H63.5184V80.2568H66.889V83.5646C66.1137 84.4505 65.1365 84.9779 63.7545 84.9779C60.7995 84.9779 59.597 83.0377 59.597 80.9744C59.597 78.7654 60.9794 76.7246 63.7545 76.7246C64.8105 76.7246 65.8668 77.1281 66.6758 77.9243L65.7544 78.8663Z" fill="#464A64"/>
<path d="M73.9667 84.7985H68.0791V76.9491H73.9667V78.3844H69.551V80.1895H73.8093V81.5688H69.551V83.3407H73.9667V84.7985Z" fill="#464A64"/>
<path d="M76.6061 78.3283V80.8399H78.8645C79.8084 80.8399 80.2127 80.212 80.2127 79.5841C80.2127 78.9562 79.7972 78.3283 78.8645 78.3283H76.6061ZM82.0894 84.7985H80.3251L78.033 82.1742H76.6061V84.7985H75.1229V76.9378C76.37 76.9378 77.6175 76.9491 78.8645 76.9491C80.7182 76.9603 81.6959 78.1936 81.6959 79.5504C81.6959 80.6271 81.2016 81.7146 79.7072 82.0176L82.0894 84.6975V84.7985Z" fill="#464A64"/>
<path d="M86.2227 78.5971L84.7621 81.939H87.6834L86.2227 78.5971ZM88.2788 83.3183H84.1667L83.4925 84.7985H81.8857L85.4137 76.9491H87.0318L90.5597 84.7985H88.9421L88.2788 83.3183Z" fill="#464A64"/>
<path d="M92.8282 76.9491V83.4305H96.8733V84.7985H91.345V76.9491H92.8282Z" fill="#464A64"/>
<path d="M100.198 76.9491H101.67V84.7985H100.198V76.9491Z" fill="#464A64"/>
<path d="M105.455 78.2946H102.961V76.9491H109.433V78.2946H106.938V84.7985H105.455V78.2946Z" fill="#464A64"/>
<path d="M113.859 78.5971L112.398 81.939H115.319L113.859 78.5971ZM115.915 83.3183H111.803L111.128 84.7985H109.522L113.05 76.9491H114.668L118.196 84.7985H116.578L115.915 83.3183Z" fill="#464A64"/>
<path d="M124.352 78.8663C123.824 78.3619 123.037 78.0814 122.352 78.0814C120.666 78.0814 119.644 79.3596 119.644 80.9744C119.644 82.2639 120.397 83.5982 122.352 83.5982C122.97 83.5982 123.509 83.464 124.127 82.9703V81.5799H122.116V80.2568H125.487V83.5646C124.711 84.4505 123.734 84.9779 122.352 84.9779C119.397 84.9779 118.195 83.0377 118.195 80.9744C118.195 78.7654 119.577 76.7246 122.352 76.7246C123.408 76.7246 124.464 77.1281 125.273 77.9243L124.352 78.8663Z" fill="#464A64"/>
<path d="M133.598 76.9603V81.4566C133.598 83.7779 132.171 84.9668 130.193 84.9668C128.306 84.9668 126.699 83.8228 126.699 81.4566V76.9603H128.171V81.4566C128.171 82.8695 128.98 83.6208 130.204 83.6208C131.429 83.6208 132.126 82.8026 132.126 81.4566V76.9603H133.598Z" fill="#464A64"/>
<path d="M138.574 78.5971L137.113 81.939H140.035L138.574 78.5971ZM140.63 83.3183H136.518L135.844 84.7985H134.237L137.765 76.9491H139.383L142.911 84.7985H141.293L140.63 83.3183Z" fill="#464A64"/>
<path d="M146 74.639H144.382L143.55 76.1641V76.2314H144.764L146 74.6951V74.639ZM143.472 76.9491H144.944V84.7985H143.472V76.9491Z" fill="#464A64"/>
<path d="M15.0878 25.389V0.110139H6.10352e-05V65.4932H15.0878V40.2143H23.8126V25.389H15.0878Z" fill="#464A64"/>
<path d="M129.786 65.427H144.917V-8.28704e-06H129.786V65.427Z" fill="#464A64"/>
<path d="M97.9475 25.3889H89.2313V40.2143H97.9475H98.6054H109.622V48.8985C105.914 51.6915 102.407 52.8422 97.7164 52.8422C83.6634 52.8422 78.6564 43.3273 78.6564 34.4227C78.6564 22.17 86.3158 13.9377 97.7164 13.9377C102.791 13.9377 108.348 16.1149 111.875 19.4847L113.1 20.6552L122.542 11.0016L121.329 9.80725C114.975 3.55431 106.59 0.110071 97.7164 0.110071C87.284 0.110071 78.5651 3.75044 72.5003 10.6376C67.0917 16.781 64.1124 25.2278 64.1124 34.4227C64.1124 43.2514 66.9127 51.2184 71.9971 56.8565C77.8878 63.389 86.7813 66.8418 97.7164 66.8418C108.039 66.8418 116.328 63.1054 123.054 55.4185L123.477 54.9355V25.3889H98.6054H97.9475Z" fill="#464A64"/>
</g>
<defs>
<clipPath id="clip0_1_38">
<rect width="146" height="85" fill="white"/>
</clipPath>
</defs>
</svg>
